<svg xmlns="http://www.w3.org/2000/svg" width="980" height="300" viewBox="0 0 980 300">
<rect width="980" height="300" fill="#fbfbf8"/>
<text x="490.0" y="30.0" font-family="Inter,Arial,sans-serif" font-size="18" font-weight="850" fill="#172026" text-anchor="middle" >Trainable Parameters: LoRA vs. Total Model Parameters</text>
<circle cx="130" cy="120" r="52" fill="#e5e7eb" stroke="none"/>
<circle cx="130" cy="120" r="36" fill="#ffffff" stroke="none"/>
<path d="M 130.00 68.00 A 52 52 0 0 1 132.72 68.07" fill="none" stroke="#0f766e" stroke-width="16" stroke-linecap="butt"/>
<circle cx="130" cy="120" r="36" fill="#ffffff" stroke="none"/>
<text x="130.0" y="125.0" font-family="Inter,Arial,sans-serif" font-size="13" font-weight="800" fill="#0f766e" text-anchor="middle" >0.35%</text>
<text x="130.0" y="192.0" font-family="Inter,Arial,sans-serif" font-size="12" font-weight="700" fill="#172026" text-anchor="middle" >ViT-B/16</text>
<text x="130.0" y="207.0" font-family="Inter,Arial,sans-serif" font-size="11" font-weight="400" fill="#65737e" text-anchor="middle" >CIFAR-10</text>
<text x="130.0" y="224.0" font-family="Inter,Arial,sans-serif" font-size="10" font-weight="600" fill="#0f766e" text-anchor="middle" >LoRA: 303K</text>
<text x="130.0" y="237.0" font-family="Inter,Arial,sans-serif" font-size="10" font-weight="400" fill="#65737e" text-anchor="middle" >Total: 85.8M</text>
<circle cx="310" cy="120" r="52" fill="#e5e7eb" stroke="none"/>
<circle cx="310" cy="120" r="36" fill="#ffffff" stroke="none"/>
<path d="M 310.00 68.00 A 52 52 0 0 1 312.72 68.07" fill="none" stroke="#0f766e" stroke-width="16" stroke-linecap="butt"/>
<circle cx="310" cy="120" r="36" fill="#ffffff" stroke="none"/>
<text x="310.0" y="125.0" font-family="Inter,Arial,sans-serif" font-size="13" font-weight="800" fill="#0f766e" text-anchor="middle" >0.71%</text>
<text x="310.0" y="192.0" font-family="Inter,Arial,sans-serif" font-size="12" font-weight="700" fill="#172026" text-anchor="middle" >RoBERTa-base</text>
<text x="310.0" y="207.0" font-family="Inter,Arial,sans-serif" font-size="11" font-weight="400" fill="#65737e" text-anchor="middle" >SST-2</text>
<text x="310.0" y="224.0" font-family="Inter,Arial,sans-serif" font-size="10" font-weight="600" fill="#0f766e" text-anchor="middle" >LoRA: 887K</text>
<text x="310.0" y="237.0" font-family="Inter,Arial,sans-serif" font-size="10" font-weight="400" fill="#65737e" text-anchor="middle" >Total: 124.6M</text>
<circle cx="490" cy="120" r="52" fill="#e5e7eb" stroke="none"/>
<circle cx="490" cy="120" r="36" fill="#ffffff" stroke="none"/>
<path d="M 490.00 68.00 A 52 52 0 0 1 492.72 68.07" fill="none" stroke="#0f766e" stroke-width="16" stroke-linecap="butt"/>
<circle cx="490" cy="120" r="36" fill="#ffffff" stroke="none"/>
<text x="490.0" y="125.0" font-family="Inter,Arial,sans-serif" font-size="13" font-weight="800" fill="#0f766e" text-anchor="middle" >0.71%</text>
<text x="490.0" y="192.0" font-family="Inter,Arial,sans-serif" font-size="12" font-weight="700" fill="#172026" text-anchor="middle" >RoBERTa-base</text>
<text x="490.0" y="207.0" font-family="Inter,Arial,sans-serif" font-size="11" font-weight="400" fill="#65737e" text-anchor="middle" >MNLI</text>
<text x="490.0" y="224.0" font-family="Inter,Arial,sans-serif" font-size="10" font-weight="600" fill="#0f766e" text-anchor="middle" >LoRA: 888K</text>
<text x="490.0" y="237.0" font-family="Inter,Arial,sans-serif" font-size="10" font-weight="400" fill="#65737e" text-anchor="middle" >Total: 124.6M</text>
<circle cx="670" cy="120" r="52" fill="#e5e7eb" stroke="none"/>
<circle cx="670" cy="120" r="36" fill="#ffffff" stroke="none"/>
<circle cx="670" cy="120" r="36" fill="#ffffff" stroke="none"/>
<text x="670.0" y="125.0" font-family="Inter,Arial,sans-serif" font-size="13" font-weight="800" fill="#0f766e" text-anchor="middle" >0.12%</text>
<text x="670.0" y="192.0" font-family="Inter,Arial,sans-serif" font-size="12" font-weight="700" fill="#172026" text-anchor="middle" >GPT-2 Small</text>
<text x="670.0" y="207.0" font-family="Inter,Arial,sans-serif" font-size="11" font-weight="400" fill="#65737e" text-anchor="middle" >E2E NLG</text>
<text x="670.0" y="224.0" font-family="Inter,Arial,sans-serif" font-size="10" font-weight="600" fill="#0f766e" text-anchor="middle" >LoRA: 147K</text>
<text x="670.0" y="237.0" font-family="Inter,Arial,sans-serif" font-size="10" font-weight="400" fill="#65737e" text-anchor="middle" >Total: 124.4M</text>
<circle cx="850" cy="120" r="52" fill="#e5e7eb" stroke="none"/>
<circle cx="850" cy="120" r="36" fill="#ffffff" stroke="none"/>
<path d="M 850.00 68.00 A 52 52 0 0 1 852.72 68.07" fill="none" stroke="#0f766e" stroke-width="16" stroke-linecap="butt"/>
<circle cx="850" cy="120" r="36" fill="#ffffff" stroke="none"/>
<text x="850.0" y="125.0" font-family="Inter,Arial,sans-serif" font-size="13" font-weight="800" fill="#0f766e" text-anchor="middle" >0.32%</text>
<text x="850.0" y="192.0" font-family="Inter,Arial,sans-serif" font-size="12" font-weight="700" fill="#172026" text-anchor="middle" >GPT-2 Medium</text>
<text x="850.0" y="207.0" font-family="Inter,Arial,sans-serif" font-size="11" font-weight="400" fill="#65737e" text-anchor="middle" >E2E NLG</text>
<text x="850.0" y="224.0" font-family="Inter,Arial,sans-serif" font-size="10" font-weight="600" fill="#0f766e" text-anchor="middle" >LoRA: 393K</text>
<text x="850.0" y="237.0" font-family="Inter,Arial,sans-serif" font-size="10" font-weight="400" fill="#65737e" text-anchor="middle" >Total: 124.4M</text>
<rect x="40" y="274" width="12" height="12" rx="2" fill="#e5e7eb"/>
<text x="56.0" y="285.0" font-family="Inter,Arial,sans-serif" font-size="10" font-weight="400" fill="#65737e" text-anchor="start" >Frozen params</text>
<rect x="150" y="274" width="12" height="12" rx="2" fill="#0f766e"/>
<text x="166.0" y="285.0" font-family="Inter,Arial,sans-serif" font-size="10" font-weight="400" fill="#65737e" text-anchor="start" >LoRA trainable params</text>
</svg>